<?xml version="1.0" encoding="UTF-8" standalone="no"?>
<!-- Generator: Adobe Illustrator 17.0.2, SVG Export Plug-In . SVG Version: 6.00 Build 0)  -->

<svg
   xmlns:dc="http://purl.org/dc/elements/1.1/"
   xmlns:cc="http://creativecommons.org/ns#"
   xmlns:rdf="http://www.w3.org/1999/02/22-rdf-syntax-ns#"
   xmlns:svg="http://www.w3.org/2000/svg"
   xmlns="http://www.w3.org/2000/svg"
   xmlns:sodipodi="http://sodipodi.sourceforge.net/DTD/sodipodi-0.dtd"
   xmlns:inkscape="http://www.inkscape.org/namespaces/inkscape"
   version="1.0"
   id="Layer_1"
   x="0px"
   y="0px"
   width="17.916px"
   height="20.495px"
   viewBox="0 0 17.916 20.495"
   enable-background="new 0 0 17.916 20.495"
   xml:space="preserve"
   inkscape:version="0.48.4 r9939"
   sodipodi:docname="biertje2.svg"><metadata
     id="metadata3114"><rdf:RDF><cc:Work
         rdf:about=""><dc:format>image/svg+xml</dc:format><dc:type
           rdf:resource="http://purl.org/dc/dcmitype/StillImage" /></cc:Work></rdf:RDF></metadata><defs
     id="defs3112" /><sodipodi:namedview
     pagecolor="#ffffff"
     bordercolor="#666666"
     borderopacity="1"
     objecttolerance="10"
     gridtolerance="10"
     guidetolerance="10"
     inkscape:pageopacity="0"
     inkscape:pageshadow="2"
     inkscape:window-width="1545"
     inkscape:window-height="876"
     id="namedview3110"
     showgrid="false"
     inkscape:zoom="11.515003"
     inkscape:cx="8.9580002"
     inkscape:cy="10.2475"
     inkscape:window-x="55"
     inkscape:window-y="24"
     inkscape:window-maximized="1"
     inkscape:current-layer="Layer_1" /><g
     id="g3104"><path
       d="M14.907,8.55h-0.911c-0.187,0-0.37,0.019-0.548,0.052V6.545c0-0.112-0.012-0.221-0.033-0.327   c0.598-0.443,0.991-1.148,0.991-1.948c0-1.49-1.372-2.685-2.883-2.386c-0.5-0.526-1.212-0.823-1.946-0.786   C9.109,0.42,8.33,0,7.499,0C6.824,0,6.186,0.268,5.717,0.734C5.592,0.683,5.464,0.642,5.333,0.612L5.17,0.58   c-0.126-0.02-0.253-0.031-0.382-0.033c-0.189-0.015-0.371-0.014-0.55,0.001L4.189,0.548v0.004C3.115,0.66,2.211,1.296,1.855,2.183   C0.801,2.383,0,3.312,0,4.422C0,5.197,0.39,5.88,0.982,6.292C0.97,6.375,0.957,6.458,0.957,6.545v12.309   c0,0.905,0.736,1.641,1.641,1.641h9.209c0.905,0,1.641-0.736,1.641-1.641v-2.514c0.178,0.033,0.36,0.052,0.548,0.052h0.911   c1.659,0,3.009-1.35,3.009-3.009v-1.823C17.916,9.901,16.566,8.55,14.907,8.55z M12.354,18.853c0,0.302-0.245,0.547-0.547,0.547   H2.598c-0.302,0-0.547-0.245-0.547-0.547V6.545c0-0.302,0.245-0.547,0.547-0.547h9.209c0.302,0,0.547,0.245,0.547,0.547V18.853z    M12.841,5.28L12.841,5.28c-0.283-0.232-0.64-0.377-1.034-0.377H2.598c-0.417,0-0.793,0.161-1.083,0.417   C1.26,5.103,1.094,4.783,1.094,4.422c0-0.651,0.529-1.182,1.181-1.184l0.448-0.002L2.81,2.797c0.102-0.514,0.636-1.057,1.452-1.152   h0.603c0.245,0.017,0.481,0.097,0.689,0.234l0.452,0.299l0.303-0.449c0.268-0.397,0.713-0.635,1.191-0.635   c0.556,0,1.05,0.315,1.292,0.823l0.184,0.387l0.42-0.086c0.572-0.115,1.155,0.124,1.478,0.597l0.24,0.352l0.4-0.147   c0.161-0.059,0.311-0.088,0.46-0.088c0.738,0,1.338,0.6,1.338,1.338C13.312,4.675,13.126,5.035,12.841,5.28z M16.275,13.383   c0,0.754-0.613,1.368-1.368,1.368h-0.911c-0.195,0-0.38-0.042-0.548-0.116v-4.326c0.168-0.074,0.353-0.116,0.548-0.116h0.911   c0.754,0,1.368,0.613,1.368,1.368V13.383z"
       id="path3106" /><rect
       x="2.598"
       y="8.003"
       width="9.21"
       height="10.85"
       id="rect3108" /></g><path
     style="fill:#ffffff"
     d="M 1.3470901,5.0566382 C 0.83656181,4.2774736 1.4299684,3.2826739 2.405275,3.2826739 c 0.3508251,0 0.3549992,-0.00382 0.4623997,-0.4228717 0.1908266,-0.7445661 0.790125,-1.1403064 1.7268494,-1.1403064 0.5156862,0 0.651605,0.035763 1.0172756,0.2676642 C 5.9959555,2.2307844 6.0413662,2.2414157 6.117411,2.1055311 6.1633628,2.0234198 6.3331287,1.8099426 6.4946687,1.6311372 7.1634817,0.89084119 8.340789,1.0734924 8.756045,1.9819744 L 8.9145786,2.3288085 9.363315,2.2755738 c 0.6166693,-0.073157 0.999767,0.07449 1.413833,0.5448932 0.332444,0.3776765 0.358413,0.3900956 0.622908,0.2978919 0.966659,-0.336979 1.848917,0.233395 1.834516,1.1860027 -0.0058,0.3813242 -0.25821,0.8707862 -0.426009,0.8259803 -0.04008,-0.010704 -0.2292,-0.077377 -0.420255,-0.1481639 C 12.097166,4.8743095 11.252559,4.8528584 7.1707213,4.8496637 L 2.300508,4.8458519 1.8906873,5.0533295 1.4808667,5.2608071 1.3470901,5.0566382 z"
     id="path3116"
     inkscape:connector-curvature="0" /><path
     style="fill:#ffffff"
     d="M 2.2710719,19.174984 C 2.1005646,19.004477 2.0973855,18.885507 2.0973855,12.675202 c 0,-6.0183288 0.00773,-6.3330883 0.1588137,-6.4698205 0.1437587,-0.1300999 0.6109508,-0.1435984 4.928353,-0.1423947 2.6232465,7.313e-4 4.8125378,0.030041 4.8650928,0.065132 0.28459,0.1900262 0.295241,0.4272887 0.295241,6.5770447 0,6.149756 -0.01065,6.387017 -0.295241,6.577044 -0.05255,0.03509 -2.2351535,0.0644 -4.8502201,0.06513 -4.6397942,0.0013 -4.7588628,-0.0029 -4.928353,-0.172357 z m 9.5527551,-5.731653 0,-5.471123 -4.6461129,0 -4.6461125,0 0,5.471123 0,5.471123 4.6461125,0 4.6461129,0 0,-5.471123 z"
     id="path3118"
     inkscape:connector-curvature="0" /></svg>